<svg width="24" height="24" viewBox="0 0 24 24" fill="none" xmlns="http://www.w3.org/2000/svg">
<path d="M6 9.6001H18C19.6569 9.6001 21 10.9432 21 12.6001V15.6001C21 17.257 19.6569 18.6001 18 18.6001H6C4.34315 18.6001 3 17.257 3 15.6001V12.6001C3 10.9432 4.34315 9.6001 6 9.6001Z" stroke="#7E7E83" stroke-width="1.6"/>
<path d="M4.23753 6H8.28752C8.66032 6 8.96252 6.30221 8.96252 6.675V7.125C8.96252 7.49779 8.66032 7.8 8.28752 7.8H4.23752C3.86473 7.8 3.56252 7.49779 3.56252 7.125V6.675C3.56252 6.30221 3.86473 6 4.23753 6Z" fill="#7E7E83"/>
<path d="M14.745 15.81C13.7757 15.81 12.99 15.0243 12.99 14.055C12.99 13.0858 13.7757 12.3 14.745 12.3C15.7143 12.3 16.5 13.0858 16.5 14.055C16.5 15.0243 15.7143 15.81 14.745 15.81Z" stroke="#7E7E83" stroke-width="1.35"/>
</svg>
